<svg width="1600" height="1000" viewBox="0 0 1600 1000" fill="none" xmlns="http://www.w3.org/2000/svg">
  <rect width="1600" height="1000" fill="#F9F4E8"/>
  <rect width="1600" height="580" fill="url(#sky)"/>
  <circle cx="250" cy="180" r="72" fill="#FFF6C1"/>
  <path d="M0 593C165 523 333 495 501 509C693 525 809 592 965 602C1140 614 1322 548 1600 494V1000H0V593Z" fill="#CBE7A1"/>
  <path d="M0 692C177 647 321 623 498 645C667 666 838 753 1006 744C1188 734 1372 643 1600 595V1000H0V692Z" fill="#A9D687"/>
  <path d="M102 789C148 723 181 702 246 696C304 689 382 729 419 783" stroke="#8BC574" stroke-width="18" stroke-linecap="round"/>
  <path d="M1173 807C1226 739 1269 711 1345 708C1401 705 1464 734 1507 779" stroke="#89BF72" stroke-width="18" stroke-linecap="round"/>
  <path d="M707 542C744 570 760 612 760 667" stroke="#A06F4F" stroke-width="16" stroke-linecap="round"/>
  <circle cx="707" cy="507" r="73" fill="#83C17A"/>
  <circle cx="664" cy="530" r="54" fill="#94CD7C"/>
  <circle cx="759" cy="531" r="52" fill="#9FD785"/>
  <path d="M123 860C175 824 213 814 282 819C359 824 387 854 460 851" stroke="#F5C587" stroke-width="13" stroke-linecap="round"/>
  <path d="M945 828C996 796 1037 789 1092 794C1157 799 1198 836 1254 840" stroke="#F7D99A" stroke-width="12" stroke-linecap="round"/>
  <defs>
    <linearGradient id="sky" x1="800" y1="0" x2="800" y2="580" gradientUnits="userSpaceOnUse">
      <stop stop-color="#DFF4FF"/>
      <stop offset="1" stop-color="#F8F6E5"/>
    </linearGradient>
  </defs>
</svg>
