<svg width="128" height="118" viewBox="0 0 128 118" fill="none" xmlns="http://www.w3.org/2000/svg">
  <path d="M111.252 54.57C111.252 78.847 88.692 98.53 60.868 98.53C33.044 98.53 10.484 78.847 10.484 54.57C10.484 30.292 30.963 18.671 57.558 18.671C84.154 18.671 111.252 30.292 111.252 54.57Z" fill="#FFD662" stroke="#A96517" stroke-width="6"/>
  <path d="M54.666 19.44C57.4 10.844 66.555 4.591 76.675 4.591C85.997 4.591 92.845 11.495 94.201 18.887" fill="#FFD662"/>
  <path d="M54.666 19.44C57.4 10.844 66.555 4.591 76.675 4.591C85.997 4.591 92.845 11.495 94.201 18.887" stroke="#A96517" stroke-width="6" stroke-linecap="round"/>
  <circle cx="82.331" cy="43.13" r="4.99" fill="#55331B"/>
  <path d="M96.887 48.408C109.478 45.616 118.42 41.089 123.39 35.182C118.551 30.171 108.975 28.69 97.205 31.314L96.887 48.408Z" fill="#F59542" stroke="#A96517" stroke-width="6" stroke-linejoin="round"/>
  <path d="M27.459 70.84C37.243 73.515 46.919 74.43 56.486 73.584" stroke="#F7E8A0" stroke-width="7" stroke-linecap="round"/>
  <path d="M64.256 101.004C65.939 106.214 65.462 110.902 62.826 115.068" stroke="#A96517" stroke-width="6" stroke-linecap="round"/>
  <path d="M81.117 99.085C82.808 104.004 82.592 108.716 80.469 113.222" stroke="#A96517" stroke-width="6" stroke-linecap="round"/>
</svg>
